<?xml version="1.0" standalone="no"?>
<!DOCTYPE svg PUBLIC "-//W3C//DTD SVG 20010904//EN"
 "http://www.w3.org/TR/2001/REC-SVG-20010904/DTD/svg10.dtd">
<svg version="1.0" xmlns="http://www.w3.org/2000/svg"
 width="1549.000000pt" height="1549.000000pt" viewBox="0 0 1549.000000 1549.000000"
 preserveAspectRatio="xMidYMid meet">
<metadata>
Created by potrace 1.14, written by Peter Selinger 2001-2017
</metadata>
<g transform="translate(0.000000,1549.000000) scale(0.100000,-0.100000)"
fill="#000000" stroke="none">
<path d="M1398 13534 c-138 -33 -267 -133 -327 -252 -66 -131 -61 203 -59
-4084 l3 -3893 22 -57 c61 -161 185 -276 342 -320 63 -17 291 -18 6366 -18
5629 0 6307 2 6360 15 157 41 287 161 347 321 l23 59 3 3893 c2 3424 0 3901
-13 3958 -44 190 -187 334 -377 379 -92 22 -12601 21 -12690 -1z m1252 -583
l0 -189 58 -7 c69 -8 205 -37 313 -66 l79 -21 0 -130 c0 -71 -3 -128 -7 -126
-5 2 -46 22 -93 45 -93 46 -227 83 -302 83 l-48 0 0 -345 c0 -328 1 -345 18
-345 11 0 54 -9 97 -20 288 -74 475 -294 475 -560 0 -263 -178 -484 -450 -559
-41 -12 -89 -21 -107 -21 l-33 0 0 -240 0 -240 -140 0 -140 0 0 220 c0 169 -3
220 -12 220 -7 0 -53 5 -103 11 -121 15 -238 50 -351 106 l-94 46 0 139 0 138
38 -24 c155 -97 375 -176 494 -176 l28 0 0 370 0 370 -27 0 c-51 0 -159 32
-240 72 -142 69 -246 200 -283 357 -18 78 -8 231 20 306 31 83 101 186 163
240 69 61 188 120 287 142 l80 18 0 187 0 188 140 0 140 0 0 -189z m10085
-155 c389 -87 711 -331 888 -673 94 -183 140 -367 141 -568 1 -149 -14 -201
-82 -290 -86 -113 -195 -168 -337 -168 -121 -1 -168 16 -291 105 -246 178
-379 237 -641 282 -212 36 -321 87 -437 205 -129 131 -188 272 -189 456 -2
122 11 188 54 283 83 185 242 318 443 373 60 16 95 19 226 15 87 -3 186 -11
225 -20z m-7515 -2481 l0 -105 -880 0 -880 0 0 105 0 105 880 0 880 0 0 -105z"/>
<path d="M2305 12526 c-68 -16 -150 -62 -187 -105 -85 -96 -108 -236 -56 -336
49 -93 147 -162 261 -184 l47 -8 0 323 c0 178 -3 324 -7 323 -5 0 -30 -6 -58
-13z"/>
<path d="M2650 11246 l0 -348 33 7 c203 44 316 184 305 379 -10 174 -112 285
-277 302 l-61 7 0 -347z"/>
<path d="M5070 3220 l0 -670 2675 0 2675 0 0 670 0 670 -2675 0 -2675 0 0
-670z"/>
</g>
</svg>
